<svg xmlns="http://www.w3.org/2000/svg" width="378" height="378" viewBox="0 0 100 100" version="1.1" id="svg8"><style id="style833"/><path id="rect846" d="M0 0v100.01124h100.01124V0zm1.137694 1.137694h97.735852v97.735852H1.137694z" stroke-width="1.05832" fill="#000"/><path id="path853" d="M89.9572 5.106394a4.921188 4.921188 0 00-4.921188 4.921188 4.921188 4.921188 0 004.921188 4.89473 4.921188 4.921188 0 004.921188-4.868272A4.921188 4.921188 0 0089.9572 5.106394zm0 1.3229a3.598288 3.598288 0 013.598288 3.598288 3.598288 3.598288 0 01-3.598288 3.57183 3.598288 3.598288 0 01-3.598288-3.545372A3.598288 3.598288 0 0189.9572 6.429294z" stroke-width="1.05832" fill="#000"/><path id="rect982" d="M6.5379369 6.9910923V93.40209H70.958798V6.9910923zm1.1563318 1.4101181h8.8440123v8.5983936H7.6942687zm10.2535463 0h9.344v8.5983936h-9.344zm10.753535 0h9.344v8.5983936h-9.344zm10.753535 0h9.344v8.5983936h-9.344zm10.753534 0h9.344001v8.5983936h-9.344001zm10.753535 0h8.840511v8.5983936h-8.840511zM7.6942687 18.691512h8.8440123v9.061626H7.6942687zm10.2535463 0h9.344v9.061626h-9.344zm10.753535 0h9.344v9.061626h-9.344zm10.753535 0h9.344v9.061626h-9.344zm10.753534 0h9.344001v9.061626h-9.344001zm10.753535 0h8.840511v9.061626h-8.840511zM7.6942687 29.445048h8.8440123v9.659043H7.6942687zm10.2535463 0h9.344v9.659043h-9.344zm10.753535 0h9.344v9.659043h-9.344zm10.753535 0h9.344v9.659043h-9.344zm10.753534 0h9.344001v9.659043h-9.344001zm10.753535 0h8.840511v9.659043h-8.840511zM7.6942687 40.796001h8.8440123v9.061625H7.6942687zm10.2535463 0h9.344v9.061625h-9.344zm10.753535 0h9.344v9.061625h-9.344zm10.753535 0h9.344v9.061625h-9.344zm10.753534 0h9.344001v9.061625h-9.344001zm10.753535 0h8.840511v9.061625h-8.840511zM7.6942687 51.549536h8.8440123v9.061625H7.6942687zm10.2535463 0h9.344v9.061625h-9.344zm10.753535 0h9.344v9.061625h-9.344zm10.753535 0h9.344v9.061625h-9.344zm10.753534 0h9.344001v9.061625h-9.344001zm10.753535 0h8.840511v9.061625h-8.840511zM7.6942687 62.303071h8.8440123v9.659043H7.6942687zm10.2535463 0h9.344v9.659043h-9.344zm10.753535 0h9.344v9.659043h-9.344zm10.753535 0h9.344v9.659043h-9.344zm10.753534 0h9.344001v9.659043h-9.344001zm10.753535 0h8.840511v9.659043h-8.840511zM7.6942687 73.654024h8.8440123v8.464206H7.6942687zm10.2535463 0h9.344v8.464206h-9.344zm10.753535 0h9.344v8.464206h-9.344zm10.753535 0h9.344v8.464206h-9.344zm10.753534 0h9.344001v8.464206h-9.344001zm10.753535 0h8.840511v8.464206h-8.840511zM7.6942687 83.81014h8.8440123v8.182416H7.6942687zm10.2535463 0h9.344v8.182416h-9.344zm10.753535 0h9.344v8.182416h-9.344zm10.753535 0h9.344v8.182416h-9.344zm10.753534 0h9.344001v8.182416h-9.344001zm10.753535 0h8.840511v8.182416h-8.840511z" fill="#000" stroke="none" stroke-width="1.35478"/><path id="path1034" d="M85.036639 33.069814A5.7795216 5.7795216 0 0079.2754 38.84914a5.7795216 5.7795216 0 005.779326 5.779323 5.7795216 5.7795216 0 005.779908-5.779323 5.7795216 5.7795216 0 00-5.779908-5.779326 5.7795216 5.7795216 0 00-.01809 0zm.01809 1.268349a4.5108462 4.5108462 0 014.510976 4.510977 4.5108462 4.5108462 0 01-4.510976 4.510976 4.5108462 4.5108462 0 01-4.510394-4.510976 4.5108462 4.5108462 0 014.510394-4.510977z" fill="#000" stroke="none" stroke-width="1.35478"/><path id="path1041" d="M78.345484 44.570004a5.7795216 5.7795216 0 00-5.76124 5.779326 5.7795216 5.7795216 0 005.779327 5.779323 5.7795216 5.7795216 0 005.779908-5.779323 5.7795216 5.7795216 0 00-5.779908-5.779326 5.7795216 5.7795216 0 00-.01809 0zm.01809 1.26835a4.5108462 4.5108462 0 014.510976 4.510976 4.5108462 4.5108462 0 01-4.510976 4.510977 4.5108462 4.5108462 0 01-4.510394-4.510977 4.5108462 4.5108462 0 014.510394-4.510976z" fill="#000" stroke="none" stroke-width="1.35478"/><path id="path1043" d="M78.345484 44.570004a5.7795216 5.7795216 0 00-5.76124 5.779326 5.7795216 5.7795216 0 005.779327 5.779323 5.7795216 5.7795216 0 005.779908-5.779323 5.7795216 5.7795216 0 00-5.779908-5.779326 5.7795216 5.7795216 0 00-.01809 0zm.01809 1.26835a4.5108462 4.5108462 0 014.510976 4.510976 4.5108462 4.5108462 0 01-4.510976 4.510977 4.5108462 4.5108462 0 01-4.510394-4.510977 4.5108462 4.5108462 0 014.510394-4.510976z" fill="#000" stroke="none" stroke-width="1.35478"/><path id="path1045" d="M91.638048 44.570004a5.7795216 5.7795216 0 00-5.761239 5.779326 5.7795216 5.7795216 0 005.779326 5.779323 5.7795216 5.7795216 0 005.779908-5.779323 5.7795216 5.7795216 0 00-5.779908-5.779326 5.7795216 5.7795216 0 00-.01809 0zm.01809 1.26835a4.5108462 4.5108462 0 014.510976 4.510976 4.5108462 4.5108462 0 01-4.510976 4.510977 4.5108462 4.5108462 0 01-4.510394-4.510977 4.5108462 4.5108462 0 014.510394-4.510976z" fill="#000" stroke="none" stroke-width="1.35478"/><path id="rect1047" d="M74.907712 62.283598v9.585537h19.171071v-9.585537zm1.163333 1.060651h16.843823v7.464235H76.071045z" fill="#000" stroke="none" stroke-width="1.35478"/><path id="path1054" d="M74.907712 73.037131v9.585538h19.171071v-9.585538zm1.163333 1.060651h16.843823v7.464235H76.071045z" fill="#000" stroke="none" stroke-width="1.35478"/><path id="path1056" d="M74.907712 83.790664v9.585538h19.171071v-9.585538zm1.163333 1.060652h16.843823v7.464235H76.071045z" fill="#000" stroke="none" stroke-width="1.35478"/></svg>